<mxfile host="app.diagrams.net" agent="Mozilla/5.0 (Windows NT 10.0; Win64; x64) AppleWebKit/537.36 (KHTML, like Gecko) Chrome/126.0.0.0 Safari/537.36" version="24.7.4">
  <diagram id="C5RBs43oDa-KdzZeNtuy" name="Page-1">
    <mxGraphModel dx="1290" dy="665" grid="1" gridSize="10" guides="1" tooltips="1" connect="1" arrows="1" fold="1" page="0" pageScale="1" pageWidth="827" pageHeight="1169" math="0" shadow="0">
      <root>
        <mxCell id="WIyWlLk6GJQsqaUBKTNV-0" />
        <mxCell id="WIyWlLk6GJQsqaUBKTNV-1" parent="WIyWlLk6GJQsqaUBKTNV-0" />
        <mxCell id="MS1C7HXApUVgQfnji1f3-48" style="edgeStyle=orthogonalEdgeStyle;rounded=0;orthogonalLoop=1;jettySize=auto;html=1;exitX=1;exitY=0.5;exitDx=0;exitDy=0;" edge="1" parent="WIyWlLk6GJQsqaUBKTNV-1" source="MS1C7HXApUVgQfnji1f3-0">
          <mxGeometry relative="1" as="geometry">
            <mxPoint x="530" y="290" as="targetPoint" />
          </mxGeometry>
        </mxCell>
        <mxCell id="MS1C7HXApUVgQfnji1f3-0" value="&lt;font style=&quot;font-size: 18px;&quot;&gt;User&lt;/font&gt;" style="swimlane;whiteSpace=wrap;html=1;" vertex="1" parent="WIyWlLk6GJQsqaUBKTNV-1">
          <mxGeometry x="60" y="190" width="200" height="200" as="geometry" />
        </mxCell>
        <mxCell id="MS1C7HXApUVgQfnji1f3-1" value="&lt;span style=&quot;line-height: 107%;&quot;&gt;&lt;font style=&quot;font-size: 18px;&quot;&gt;id&lt;/font&gt;&lt;/span&gt;" style="text;strokeColor=none;align=center;fillColor=none;html=1;verticalAlign=middle;whiteSpace=wrap;rounded=0;" vertex="1" parent="MS1C7HXApUVgQfnji1f3-0">
          <mxGeometry x="15" y="30" width="170" height="30" as="geometry" />
        </mxCell>
        <mxCell id="MS1C7HXApUVgQfnji1f3-4" value="&lt;font style=&quot;font-size: 18px;&quot;&gt;username&lt;/font&gt;" style="text;strokeColor=none;align=center;fillColor=none;html=1;verticalAlign=middle;whiteSpace=wrap;rounded=0;" vertex="1" parent="MS1C7HXApUVgQfnji1f3-0">
          <mxGeometry x="70" y="60" width="60" height="30" as="geometry" />
        </mxCell>
        <mxCell id="MS1C7HXApUVgQfnji1f3-5" value="&lt;font style=&quot;font-size: 18px;&quot;&gt;password&lt;/font&gt;" style="text;strokeColor=none;align=center;fillColor=none;html=1;verticalAlign=middle;whiteSpace=wrap;rounded=0;" vertex="1" parent="MS1C7HXApUVgQfnji1f3-0">
          <mxGeometry x="70" y="100" width="60" height="30" as="geometry" />
        </mxCell>
        <mxCell id="MS1C7HXApUVgQfnji1f3-6" value="&lt;font style=&quot;font-size: 18px;&quot;&gt;email&lt;/font&gt;" style="text;strokeColor=none;align=center;fillColor=none;html=1;verticalAlign=middle;whiteSpace=wrap;rounded=0;" vertex="1" parent="MS1C7HXApUVgQfnji1f3-0">
          <mxGeometry x="70" y="130" width="60" height="30" as="geometry" />
        </mxCell>
        <mxCell id="MS1C7HXApUVgQfnji1f3-47" style="edgeStyle=orthogonalEdgeStyle;rounded=0;orthogonalLoop=1;jettySize=auto;html=1;exitX=0.5;exitY=1;exitDx=0;exitDy=0;" edge="1" parent="MS1C7HXApUVgQfnji1f3-0" source="MS1C7HXApUVgQfnji1f3-7">
          <mxGeometry relative="1" as="geometry">
            <mxPoint x="100" y="360" as="targetPoint" />
          </mxGeometry>
        </mxCell>
        <mxCell id="MS1C7HXApUVgQfnji1f3-7" value="&lt;font style=&quot;font-size: 18px;&quot;&gt;role&lt;/font&gt;" style="text;strokeColor=none;align=center;fillColor=none;html=1;verticalAlign=middle;whiteSpace=wrap;rounded=0;" vertex="1" parent="MS1C7HXApUVgQfnji1f3-0">
          <mxGeometry x="70" y="170" width="60" height="30" as="geometry" />
        </mxCell>
        <mxCell id="MS1C7HXApUVgQfnji1f3-49" style="edgeStyle=orthogonalEdgeStyle;rounded=0;orthogonalLoop=1;jettySize=auto;html=1;exitX=0;exitY=0.75;exitDx=0;exitDy=0;" edge="1" parent="WIyWlLk6GJQsqaUBKTNV-1" source="MS1C7HXApUVgQfnji1f3-8" target="MS1C7HXApUVgQfnji1f3-40">
          <mxGeometry relative="1" as="geometry" />
        </mxCell>
        <mxCell id="MS1C7HXApUVgQfnji1f3-8" value="&lt;font style=&quot;font-size: 18px;&quot;&gt;Applicant&lt;/font&gt;" style="swimlane;whiteSpace=wrap;html=1;startSize=23;" vertex="1" parent="WIyWlLk6GJQsqaUBKTNV-1">
          <mxGeometry x="540" y="200" width="200" height="280" as="geometry" />
        </mxCell>
        <mxCell id="MS1C7HXApUVgQfnji1f3-9" value="&lt;span style=&quot;line-height: 107%;&quot;&gt;&lt;font style=&quot;font-size: 18px;&quot;&gt;id&lt;/font&gt;&lt;/span&gt;" style="text;strokeColor=none;align=center;fillColor=none;html=1;verticalAlign=middle;whiteSpace=wrap;rounded=0;" vertex="1" parent="MS1C7HXApUVgQfnji1f3-8">
          <mxGeometry x="15" y="30" width="170" height="30" as="geometry" />
        </mxCell>
        <mxCell id="MS1C7HXApUVgQfnji1f3-10" value="&lt;font style=&quot;font-size: 18px;&quot;&gt;applicantName&lt;/font&gt;" style="text;strokeColor=none;align=center;fillColor=none;html=1;verticalAlign=middle;whiteSpace=wrap;rounded=0;" vertex="1" parent="MS1C7HXApUVgQfnji1f3-8">
          <mxGeometry x="70" y="60" width="60" height="30" as="geometry" />
        </mxCell>
        <mxCell id="MS1C7HXApUVgQfnji1f3-11" value="&lt;font style=&quot;font-size: 18px;&quot;&gt;jobTitle&lt;/font&gt;" style="text;strokeColor=none;align=center;fillColor=none;html=1;verticalAlign=middle;whiteSpace=wrap;rounded=0;" vertex="1" parent="MS1C7HXApUVgQfnji1f3-8">
          <mxGeometry x="70" y="100" width="60" height="30" as="geometry" />
        </mxCell>
        <mxCell id="MS1C7HXApUVgQfnji1f3-12" value="&lt;font style=&quot;font-size: 18px;&quot;&gt;status&lt;/font&gt;" style="text;strokeColor=none;align=center;fillColor=none;html=1;verticalAlign=middle;whiteSpace=wrap;rounded=0;" vertex="1" parent="MS1C7HXApUVgQfnji1f3-8">
          <mxGeometry x="70" y="140" width="60" height="30" as="geometry" />
        </mxCell>
        <mxCell id="MS1C7HXApUVgQfnji1f3-13" value="&lt;font style=&quot;font-size: 18px;&quot;&gt;role&lt;/font&gt;" style="text;strokeColor=none;align=center;fillColor=none;html=1;verticalAlign=middle;whiteSpace=wrap;rounded=0;" vertex="1" parent="MS1C7HXApUVgQfnji1f3-8">
          <mxGeometry x="70" y="170" width="60" height="30" as="geometry" />
        </mxCell>
        <mxCell id="MS1C7HXApUVgQfnji1f3-14" value="&lt;font style=&quot;font-size: 18px;&quot;&gt;user&lt;/font&gt;" style="text;strokeColor=none;align=center;fillColor=none;html=1;verticalAlign=middle;whiteSpace=wrap;rounded=0;" vertex="1" parent="MS1C7HXApUVgQfnji1f3-8">
          <mxGeometry x="70" y="200" width="60" height="30" as="geometry" />
        </mxCell>
        <mxCell id="MS1C7HXApUVgQfnji1f3-15" value="&lt;font style=&quot;font-size: 18px;&quot;&gt;payment&lt;/font&gt;" style="text;strokeColor=none;align=center;fillColor=none;html=1;verticalAlign=middle;whiteSpace=wrap;rounded=0;" vertex="1" parent="MS1C7HXApUVgQfnji1f3-8">
          <mxGeometry x="70" y="230" width="60" height="30" as="geometry" />
        </mxCell>
        <mxCell id="MS1C7HXApUVgQfnji1f3-50" style="edgeStyle=orthogonalEdgeStyle;rounded=0;orthogonalLoop=1;jettySize=auto;html=1;exitX=1;exitY=0.5;exitDx=0;exitDy=0;" edge="1" parent="WIyWlLk6GJQsqaUBKTNV-1" source="MS1C7HXApUVgQfnji1f3-16">
          <mxGeometry relative="1" as="geometry">
            <mxPoint x="500" y="710" as="targetPoint" />
          </mxGeometry>
        </mxCell>
        <mxCell id="MS1C7HXApUVgQfnji1f3-16" value="&lt;font style=&quot;font-size: 18px;&quot;&gt;Job&lt;/font&gt;" style="swimlane;whiteSpace=wrap;html=1;" vertex="1" parent="WIyWlLk6GJQsqaUBKTNV-1">
          <mxGeometry x="60" y="560" width="190" height="300" as="geometry" />
        </mxCell>
        <mxCell id="MS1C7HXApUVgQfnji1f3-17" value="&lt;font style=&quot;font-size: 18px;&quot;&gt;jobId&lt;/font&gt;" style="text;strokeColor=none;align=center;fillColor=none;html=1;verticalAlign=middle;whiteSpace=wrap;rounded=0;" vertex="1" parent="MS1C7HXApUVgQfnji1f3-16">
          <mxGeometry x="65" y="40" width="60" height="30" as="geometry" />
        </mxCell>
        <mxCell id="MS1C7HXApUVgQfnji1f3-18" value="&lt;font style=&quot;font-size: 18px;&quot;&gt;title&lt;/font&gt;" style="text;strokeColor=none;align=center;fillColor=none;html=1;verticalAlign=middle;whiteSpace=wrap;rounded=0;" vertex="1" parent="MS1C7HXApUVgQfnji1f3-16">
          <mxGeometry x="65" y="70" width="60" height="30" as="geometry" />
        </mxCell>
        <mxCell id="MS1C7HXApUVgQfnji1f3-19" value="&lt;font style=&quot;font-size: 18px;&quot;&gt;dept&lt;/font&gt;" style="text;strokeColor=none;align=center;fillColor=none;html=1;verticalAlign=middle;whiteSpace=wrap;rounded=0;" vertex="1" parent="MS1C7HXApUVgQfnji1f3-16">
          <mxGeometry x="65" y="100" width="60" height="30" as="geometry" />
        </mxCell>
        <mxCell id="MS1C7HXApUVgQfnji1f3-20" value="&lt;font style=&quot;font-size: 18px;&quot;&gt;location&lt;/font&gt;" style="text;strokeColor=none;align=center;fillColor=none;html=1;verticalAlign=middle;whiteSpace=wrap;rounded=0;" vertex="1" parent="MS1C7HXApUVgQfnji1f3-16">
          <mxGeometry x="65" y="130" width="60" height="30" as="geometry" />
        </mxCell>
        <mxCell id="MS1C7HXApUVgQfnji1f3-21" value="&lt;font style=&quot;font-size: 18px;&quot;&gt;responsibility&lt;/font&gt;" style="text;strokeColor=none;align=center;fillColor=none;html=1;verticalAlign=middle;whiteSpace=wrap;rounded=0;" vertex="1" parent="MS1C7HXApUVgQfnji1f3-16">
          <mxGeometry x="60" y="160" width="70" height="30" as="geometry" />
        </mxCell>
        <mxCell id="MS1C7HXApUVgQfnji1f3-28" value="&lt;font style=&quot;font-size: 18px;&quot;&gt;qualification&lt;/font&gt;" style="text;strokeColor=none;align=center;fillColor=none;html=1;verticalAlign=middle;whiteSpace=wrap;rounded=0;" vertex="1" parent="MS1C7HXApUVgQfnji1f3-16">
          <mxGeometry x="70" y="190" width="55" height="30" as="geometry" />
        </mxCell>
        <mxCell id="MS1C7HXApUVgQfnji1f3-29" value="&lt;font style=&quot;font-size: 18px;&quot;&gt;deadline&lt;/font&gt;" style="text;strokeColor=none;align=center;fillColor=none;html=1;verticalAlign=middle;whiteSpace=wrap;rounded=0;" vertex="1" parent="MS1C7HXApUVgQfnji1f3-16">
          <mxGeometry x="65" y="220" width="60" height="30" as="geometry" />
        </mxCell>
        <mxCell id="MS1C7HXApUVgQfnji1f3-30" value="&lt;font style=&quot;font-size: 18px;&quot;&gt;category&lt;/font&gt;" style="text;strokeColor=none;align=center;fillColor=none;html=1;verticalAlign=middle;whiteSpace=wrap;rounded=0;" vertex="1" parent="MS1C7HXApUVgQfnji1f3-16">
          <mxGeometry x="65" y="250" width="60" height="30" as="geometry" />
        </mxCell>
        <mxCell id="MS1C7HXApUVgQfnji1f3-31" value="&lt;font style=&quot;font-size: 18px;&quot;&gt;Payment&lt;/font&gt;" style="swimlane;whiteSpace=wrap;html=1;startSize=23;" vertex="1" parent="WIyWlLk6GJQsqaUBKTNV-1">
          <mxGeometry x="500" y="570" width="190" height="230" as="geometry" />
        </mxCell>
        <mxCell id="MS1C7HXApUVgQfnji1f3-32" value="&lt;font style=&quot;font-size: 18px;&quot;&gt;id&lt;/font&gt;" style="text;strokeColor=none;align=center;fillColor=none;html=1;verticalAlign=middle;whiteSpace=wrap;rounded=0;" vertex="1" parent="MS1C7HXApUVgQfnji1f3-31">
          <mxGeometry x="65" y="40" width="60" height="30" as="geometry" />
        </mxCell>
        <mxCell id="MS1C7HXApUVgQfnji1f3-33" value="&lt;font style=&quot;font-size: 18px;&quot;&gt;status&lt;/font&gt;" style="text;strokeColor=none;align=center;fillColor=none;html=1;verticalAlign=middle;whiteSpace=wrap;rounded=0;" vertex="1" parent="MS1C7HXApUVgQfnji1f3-31">
          <mxGeometry x="65" y="70" width="60" height="30" as="geometry" />
        </mxCell>
        <mxCell id="MS1C7HXApUVgQfnji1f3-34" value="&lt;font style=&quot;font-size: 18px;&quot;&gt;totalAmount&lt;/font&gt;" style="text;strokeColor=none;align=center;fillColor=none;html=1;verticalAlign=middle;whiteSpace=wrap;rounded=0;" vertex="1" parent="MS1C7HXApUVgQfnji1f3-31">
          <mxGeometry x="65" y="100" width="60" height="30" as="geometry" />
        </mxCell>
        <mxCell id="MS1C7HXApUVgQfnji1f3-35" value="&lt;font style=&quot;font-size: 18px;&quot;&gt;paymentDate&lt;/font&gt;" style="text;strokeColor=none;align=center;fillColor=none;html=1;verticalAlign=middle;whiteSpace=wrap;rounded=0;" vertex="1" parent="MS1C7HXApUVgQfnji1f3-31">
          <mxGeometry x="65" y="130" width="60" height="30" as="geometry" />
        </mxCell>
        <mxCell id="MS1C7HXApUVgQfnji1f3-36" value="&lt;font style=&quot;font-size: 18px;&quot;&gt;modeOfPayment&lt;/font&gt;" style="text;strokeColor=none;align=center;fillColor=none;html=1;verticalAlign=middle;whiteSpace=wrap;rounded=0;" vertex="1" parent="MS1C7HXApUVgQfnji1f3-31">
          <mxGeometry x="60" y="160" width="70" height="30" as="geometry" />
        </mxCell>
        <mxCell id="MS1C7HXApUVgQfnji1f3-37" value="&lt;font style=&quot;font-size: 18px;&quot;&gt;applicant&lt;/font&gt;" style="text;strokeColor=none;align=center;fillColor=none;html=1;verticalAlign=middle;whiteSpace=wrap;rounded=0;" vertex="1" parent="MS1C7HXApUVgQfnji1f3-31">
          <mxGeometry x="70" y="190" width="55" height="30" as="geometry" />
        </mxCell>
        <mxCell id="MS1C7HXApUVgQfnji1f3-51" style="edgeStyle=orthogonalEdgeStyle;rounded=0;orthogonalLoop=1;jettySize=auto;html=1;exitX=1;exitY=0.75;exitDx=0;exitDy=0;entryX=0;entryY=0;entryDx=0;entryDy=0;" edge="1" parent="WIyWlLk6GJQsqaUBKTNV-1" source="MS1C7HXApUVgQfnji1f3-40" target="MS1C7HXApUVgQfnji1f3-31">
          <mxGeometry relative="1" as="geometry" />
        </mxCell>
        <mxCell id="MS1C7HXApUVgQfnji1f3-40" value="&lt;font style=&quot;font-size: 18px;&quot;&gt;JobsApplied&lt;/font&gt;" style="swimlane;whiteSpace=wrap;html=1;startSize=23;" vertex="1" parent="WIyWlLk6GJQsqaUBKTNV-1">
          <mxGeometry x="280" y="400" width="190" height="180" as="geometry" />
        </mxCell>
        <mxCell id="MS1C7HXApUVgQfnji1f3-41" value="&lt;font style=&quot;font-size: 18px;&quot;&gt;id&lt;/font&gt;" style="text;strokeColor=none;align=center;fillColor=none;html=1;verticalAlign=middle;whiteSpace=wrap;rounded=0;" vertex="1" parent="MS1C7HXApUVgQfnji1f3-40">
          <mxGeometry x="65" y="40" width="60" height="30" as="geometry" />
        </mxCell>
        <mxCell id="MS1C7HXApUVgQfnji1f3-42" value="&lt;font style=&quot;font-size: 18px;&quot;&gt;appliedDate&lt;/font&gt;" style="text;strokeColor=none;align=center;fillColor=none;html=1;verticalAlign=middle;whiteSpace=wrap;rounded=0;" vertex="1" parent="MS1C7HXApUVgQfnji1f3-40">
          <mxGeometry x="65" y="70" width="60" height="30" as="geometry" />
        </mxCell>
        <mxCell id="MS1C7HXApUVgQfnji1f3-43" value="&lt;font style=&quot;font-size: 18px;&quot;&gt;appicant&lt;/font&gt;" style="text;strokeColor=none;align=center;fillColor=none;html=1;verticalAlign=middle;whiteSpace=wrap;rounded=0;" vertex="1" parent="MS1C7HXApUVgQfnji1f3-40">
          <mxGeometry x="65" y="100" width="60" height="30" as="geometry" />
        </mxCell>
        <mxCell id="MS1C7HXApUVgQfnji1f3-44" value="&lt;font style=&quot;font-size: 18px;&quot;&gt;job&lt;/font&gt;" style="text;strokeColor=none;align=center;fillColor=none;html=1;verticalAlign=middle;whiteSpace=wrap;rounded=0;" vertex="1" parent="MS1C7HXApUVgQfnji1f3-40">
          <mxGeometry x="65" y="130" width="60" height="30" as="geometry" />
        </mxCell>
      </root>
    </mxGraphModel>
  </diagram>
</mxfile>
